<svg width="80" height="80" viewBox="0 0 80 80" fill="none" xmlns="http://www.w3.org/2000/svg">
<g clip-path="url(#clip0_254_7459)">
<path d="M2.10885 66.3403L35.3713 8.61464C37.3592 5.16491 42.3287 5.16491 44.316 8.61464L77.579 66.3403C79.5669 69.7894 77.0822 74.1014 73.1063 74.1014H6.58152C2.60568 74.1014 0.120936 69.7894 2.10885 66.3403Z" fill="#1BD9BF"/>
<path d="M61.5023 40.0065C61.0916 40.0065 60.6887 39.8389 60.3982 39.5478C60.1071 39.2567 59.9404 38.8531 59.9404 38.4409C59.9404 38.0294 60.1071 37.6257 60.3982 37.3346C60.6887 37.0435 61.0916 36.876 61.5023 36.876C61.9137 36.876 62.3165 37.0435 62.6071 37.3346C62.8976 37.6257 63.0648 38.0294 63.0648 38.4409C63.0648 38.8531 62.8976 39.2567 62.6071 39.5478C62.3165 39.8389 61.9137 40.0065 61.5023 40.0065Z" fill="#000E0A"/>
<path d="M73.1062 75.6667H6.58143C4.14918 75.6667 1.97144 74.4069 0.755617 72.2971C-0.460206 70.1866 -0.460206 67.667 0.755617 65.5572L34.0186 7.83153C35.2344 5.7217 37.4122 4.46191 39.8438 4.46191C42.2755 4.46191 44.4532 5.7217 45.669 7.83153L59.4618 31.7674C59.8933 32.516 59.637 33.4737 58.8899 33.906C58.1422 34.3378 57.187 34.0815 56.7555 33.333L42.9633 9.39709C42.3121 8.26757 41.1457 7.59242 39.8438 7.59242C38.5419 7.59242 37.3756 8.26757 36.7243 9.39709L3.46192 67.1221C2.81067 68.2523 2.81067 69.6013 3.46192 70.7315C4.11256 71.8616 5.27894 72.5362 6.58143 72.5362H73.1062C74.4087 72.5362 75.5745 71.8616 76.2257 70.7315C76.877 69.6013 76.877 68.2523 76.2257 67.1221L62.8926 43.9831C62.4611 43.2345 62.7174 42.2775 63.4645 41.8451C64.2116 41.4128 65.1674 41.669 65.5989 42.4181L78.932 65.5572C80.1479 67.667 80.1479 70.1866 78.932 72.2971C77.7156 74.4069 75.5385 75.6667 73.1062 75.6667Z" fill="#000E0A"/>
<path d="M36.4062 32.6868V46.8147C36.4062 48.7166 37.9456 50.2583 39.8438 50.2583C41.742 50.2583 43.2813 48.7166 43.2813 46.8147V32.6868C43.2813 30.7849 41.742 29.2432 39.8438 29.2432C37.9456 29.2432 36.4062 30.7849 36.4062 32.6868Z" fill="#012D22"/>
<path d="M39.8441 51.824C37.0872 51.824 34.8447 49.5766 34.8447 46.8148V32.6869C34.8447 29.9246 37.0872 27.6777 39.8441 27.6777C42.6011 27.6777 44.8435 29.9246 44.8435 32.6869V46.8148C44.8435 49.5766 42.6011 51.824 39.8441 51.824ZM39.8441 30.8088C38.8102 30.8088 37.9691 31.6516 37.9691 32.6869V46.8148C37.9691 47.8508 38.8102 48.6935 39.8441 48.6935C40.8781 48.6935 41.7191 47.8508 41.7191 46.8148V32.6869C41.7191 31.6516 40.8781 30.8088 39.8441 30.8088Z" fill="#000E0A"/>
<path d="M36.4062 60.5911C36.4062 62.493 37.9456 64.0353 39.8438 64.0353C41.742 64.0353 43.2813 62.493 43.2813 60.5911C43.2813 58.6892 41.742 57.1475 39.8438 57.1475C37.9456 57.1468 36.4062 58.6892 36.4062 60.5911Z" fill="#012D22"/>
<path d="M39.8441 65.6004C37.0872 65.6004 34.8447 63.3536 34.8447 60.5912C34.8447 57.8289 37.0872 55.582 39.8441 55.582C42.6011 55.582 44.8435 57.8289 44.8435 60.5912C44.8435 61.9293 44.3235 63.1872 43.3793 64.1333C42.4351 65.0793 41.1796 65.6004 39.8441 65.6004ZM39.8441 58.7125C38.8102 58.7125 37.9691 59.5552 37.9691 60.5912C37.9691 61.6272 38.8102 62.4699 39.8441 62.4699C40.3446 62.4699 40.8158 62.2742 41.1698 61.9195C41.5238 61.5648 41.7191 61.0927 41.7191 60.5912C41.7191 59.5552 40.8781 58.7125 39.8441 58.7125Z" fill="#000E0A"/>
</g>
<defs>
<clipPath id="clip0_254_7459">
<rect width="80" height="80" fill="white"/>
</clipPath>
</defs>
</svg>
