<svg width="215" height="62" viewBox="0 0 215 62" fill="none" xmlns="http://www.w3.org/2000/svg">
<path d="M60.7047 56.9395V44.4304H65.078C65.9494 44.4304 66.6681 44.581 67.2341 44.8824C67.8001 45.1796 68.2216 45.5807 68.4985 46.0856C68.7754 46.5865 68.9138 47.1423 68.9138 47.7531C68.9138 48.2906 68.8181 48.7344 68.6267 49.0846C68.4394 49.4348 68.191 49.7117 67.8816 49.9153C67.5762 50.1189 67.2443 50.2696 66.886 50.3673V50.4895C67.2687 50.5139 67.6535 50.6483 68.0404 50.8926C68.4272 51.1369 68.7509 51.4871 69.0115 51.9431C69.2721 52.3992 69.4024 52.9571 69.4024 53.6167C69.4024 54.2438 69.2599 54.8078 68.9749 55.3086C68.6898 55.8095 68.2399 56.2065 67.625 56.4997C67.0102 56.7929 66.21 56.9395 65.2246 56.9395H60.7047ZM62.2195 55.5957H65.2246C66.2141 55.5957 66.9165 55.4043 67.3318 55.0216C67.7513 54.6347 67.961 54.1664 67.961 53.6167C67.961 53.1932 67.8531 52.8023 67.6372 52.444C67.4214 52.0816 67.114 51.7925 66.7149 51.5767C66.3159 51.3568 65.8435 51.2468 65.2979 51.2468H62.2195V55.5957ZM62.2195 49.9275H65.0291C65.4852 49.9275 65.8965 49.8379 66.263 49.6588C66.6335 49.4796 66.9267 49.2271 67.1425 48.9014C67.3624 48.5756 67.4723 48.1929 67.4723 47.7531C67.4723 47.2034 67.2809 46.7371 66.8982 46.3544C66.5154 45.9675 65.9087 45.7741 65.078 45.7741H62.2195V49.9275ZM71.8914 56.9395V44.4304H79.4409V45.7741H73.4062V50.0008H79.05V51.3446H73.4062V55.5957H79.5386V56.9395H71.8914ZM82.6842 56.9395H81.0961L85.6893 44.4304H87.2529L91.8461 56.9395H90.2581L86.52 46.4093H86.4223L82.6842 56.9395ZM83.2706 52.0531H89.6717V53.3968H83.2706V52.0531ZM102.004 44.4304H103.518V52.7127C103.518 53.5679 103.317 54.3314 102.914 55.0032C102.515 55.671 101.951 56.1984 101.222 56.5852C100.493 56.968 99.6378 57.1593 98.6565 57.1593C97.6751 57.1593 96.82 56.968 96.0911 56.5852C95.3623 56.1984 94.7963 55.671 94.3931 55.0032C93.9941 54.3314 93.7946 53.5679 93.7946 52.7127V44.4304H95.3093V52.5906C95.3093 53.2014 95.4437 53.745 95.7125 54.2214C95.9812 54.6938 96.364 55.0663 96.8608 55.3392C97.3616 55.6079 97.9602 55.7423 98.6565 55.7423C99.3528 55.7423 99.9514 55.6079 100.452 55.3392C100.953 55.0663 101.336 54.6938 101.601 54.2214C101.869 53.745 102.004 53.2014 102.004 52.5906V44.4304ZM105.859 45.7741V44.4304H115.241V45.7741H111.308V56.9395H109.793V45.7741H105.859ZM116.504 44.4304H118.239L121.708 50.2696H121.855L125.324 44.4304H127.058L122.539 51.7843V56.9395H121.024V51.7843L116.504 44.4304Z" fill="white"/>
<path d="M74.853 27.5836C74.853 29.3583 74.9326 31.4971 75.0919 34C69.7221 33.9317 64.3637 33.9317 59.0167 34V33.727C60.2453 33.4539 61.0303 33.1695 61.3716 32.8737C61.7357 32.5552 61.9177 32.0091 61.9177 31.2355V14.8189C61.9177 14.0453 61.7357 13.5106 61.3716 13.2148C61.0303 12.8963 60.2453 12.6005 59.0167 12.3274V12.0544C64.3409 12.1227 69.6652 12.1227 74.9895 12.0544C74.8302 14.2387 74.7506 16.1273 74.7506 17.72H74.4776C73.886 15.968 73.0782 14.7962 72.0543 14.2046C71.0532 13.5903 69.3239 13.2831 66.8666 13.2831H65.3307V21.7815H67.3785C68.721 21.7815 69.6994 21.5653 70.3137 21.133C70.928 20.6779 71.5082 19.836 72.0543 18.6074H72.3274C72.1453 21.1102 72.1453 23.6245 72.3274 26.1501H72.0543C71.531 24.8987 70.9508 24.0568 70.3137 23.6245C69.6994 23.1922 68.721 22.976 67.3785 22.976H65.3307V32.7713H66.969C69.3581 32.7713 71.0646 32.43 72.0885 31.7474C73.1124 31.0421 73.9542 29.6541 74.6141 27.5836H74.853ZM91.9041 34.273L83.1668 16.423H82.9279L82.3819 30.1433C82.3363 31.2127 82.5866 32.0091 83.1327 32.5324C83.6788 33.033 84.6572 33.4312 86.0679 33.727V34C83.201 33.9317 80.3341 33.9317 77.4671 34V33.727C78.6731 33.4312 79.5149 33.033 79.9928 32.5324C80.4933 32.0091 80.7777 31.2127 80.846 30.1433L81.5969 16.15C81.6651 14.9896 81.449 14.1363 80.9484 13.5903C80.4706 13.0442 79.5718 12.6232 78.2521 12.3274V12.0544C80.4592 12.1227 82.689 12.1227 84.9416 12.0544L92.9622 28.4368H93.2011L100.095 12.0544C102.189 12.1227 104.282 12.1227 106.375 12.0544V12.3274C105.306 12.555 104.555 12.8394 104.123 13.1807C103.69 13.4992 103.486 14.0453 103.508 14.8189C103.781 21.2354 104.077 26.7189 104.396 31.2696C104.441 32.0205 104.657 32.5552 105.044 32.8737C105.454 33.1923 106.216 33.4767 107.331 33.727V34C104.259 33.9317 101.176 33.9317 98.0817 34V33.727C99.2876 33.4767 100.073 33.1923 100.437 32.8737C100.823 32.5324 101.005 31.9863 100.983 31.2355C100.619 25.2968 100.368 20.2001 100.232 15.9452H99.9929L92.2113 34.273H91.9041ZM125.148 27.5836C125.148 29.3583 125.228 31.4971 125.387 34C120.017 33.9317 114.659 33.9317 109.312 34V33.727C110.54 33.4539 111.325 33.1695 111.667 32.8737C112.031 32.5552 112.213 32.0091 112.213 31.2355V14.8189C112.213 14.0453 112.031 13.5106 111.667 13.2148C111.325 12.8963 110.54 12.6005 109.312 12.3274V12.0544C114.636 12.1227 119.96 12.1227 125.285 12.0544C125.125 14.2387 125.046 16.1273 125.046 17.72H124.773C124.181 15.968 123.373 14.7962 122.349 14.2046C121.348 13.5903 119.619 13.2831 117.162 13.2831H115.626V21.7815H117.674C119.016 21.7815 119.994 21.5653 120.609 21.133C121.223 20.6779 121.803 19.836 122.349 18.6074H122.622C122.44 21.1102 122.44 23.6245 122.622 26.1501H122.349C121.826 24.8987 121.246 24.0568 120.609 23.6245C119.994 23.1922 119.016 22.976 117.674 22.976H115.626V32.7713H117.264C119.653 32.7713 121.36 32.43 122.384 31.7474C123.407 31.0421 124.249 29.6541 124.909 27.5836H125.148ZM143.701 29.2218C145.385 31.975 146.852 33.4767 148.104 33.727V34C146.647 34.3413 145.635 34.512 145.066 34.512C143.792 34.512 142.757 33.8293 141.96 32.4641L137.353 24.5801H136.943C136.147 24.5801 135.396 24.4436 134.691 24.1706V31.2355C134.691 32.0091 134.873 32.5552 135.237 32.8737C135.623 33.1695 136.488 33.4539 137.831 33.727V34C134.668 33.9317 131.517 33.9317 128.377 34V33.727C129.605 33.4539 130.39 33.1695 130.732 32.8737C131.096 32.5552 131.278 32.0091 131.278 31.2355V14.8189C131.278 14.0453 131.096 13.5106 130.732 13.2148C130.39 12.8963 129.605 12.6005 128.377 12.3274V12.0544C130.766 12.1227 133.337 12.1227 136.09 12.0544C138.889 11.9634 141.062 12.4753 142.609 13.5903C144.179 14.7052 144.964 16.1728 144.964 17.993C144.964 19.29 144.554 20.4731 143.735 21.5425C142.916 22.612 141.824 23.4083 140.459 23.9316L143.701 29.2218ZM136.738 23.3514C137.99 23.3514 139.059 22.885 139.947 21.9521C140.857 20.9965 141.312 19.7678 141.312 18.2661C141.312 16.6506 140.845 15.4219 139.913 14.58C138.98 13.7154 137.626 13.2831 135.851 13.2831C135.555 13.2831 135.168 13.3172 134.691 13.3855V22.9419C135.396 23.2149 136.079 23.3514 136.738 23.3514ZM148.449 34V33.727C149.359 33.4312 150.076 33.033 150.599 32.5324C151.123 32.0091 151.623 31.1672 152.101 30.0068L159.712 11.7131H160.019L168.893 31.1672C169.28 32.0318 169.666 32.6348 170.053 32.9761C170.463 33.3174 171.089 33.5677 171.93 33.727V34C168.836 33.9317 165.73 33.9317 162.613 34V33.727C162.681 33.7042 162.772 33.6815 162.886 33.6587C163.455 33.5222 163.864 33.4084 164.115 33.3174C164.388 33.2264 164.638 33.0899 164.866 32.9078C165.093 32.7031 165.207 32.4641 165.207 32.1911C165.207 31.8953 165.127 31.5768 164.968 31.2355L163.296 27.3788H154.729L153.569 30.1433C153.341 30.6894 153.227 31.1786 153.227 31.6109C153.227 32.7031 154.16 33.4084 156.026 33.727V34C153.5 33.9317 150.975 33.9317 148.449 34ZM155.241 26.1501H162.784L159.063 17.4469H158.825L155.241 26.1501ZM173.439 34V33.727C174.668 33.4539 175.453 33.1695 175.794 32.8737C176.158 32.5552 176.34 32.0091 176.34 31.2355V14.8189C176.34 14.0453 176.158 13.5106 175.794 13.2148C175.453 12.8963 174.668 12.6005 173.439 12.3274V12.0544C176.715 12.1227 180.003 12.1227 183.302 12.0544V12.3274C181.755 12.6005 180.777 12.8849 180.367 13.1807C179.958 13.4765 179.753 14.0226 179.753 14.8189V32.7713H181.22C183.268 32.7713 184.781 32.3845 185.76 31.6109C186.761 30.8145 187.591 29.3356 188.251 27.174H188.524C188.502 28.9715 188.57 31.2468 188.729 34C183.632 33.9317 178.536 33.9317 173.439 34ZM199.264 12.0544C203.587 11.9406 206.955 12.7825 209.367 14.58C211.778 16.3775 212.984 18.96 212.984 22.3275C212.984 25.9681 211.869 28.8464 209.64 30.9624C207.432 33.0785 204.429 34.091 200.629 34C197.398 33.9317 194.179 33.9317 190.97 34V33.727C192.176 33.4539 192.95 33.1695 193.291 32.8737C193.655 32.5552 193.837 32.0091 193.837 31.2355V14.8189C193.837 14.0226 193.667 13.4765 193.325 13.1807C192.984 12.8849 192.199 12.6005 190.97 12.3274V12.0544C193.519 12.1227 196.283 12.1227 199.264 12.0544ZM200.936 32.7713C203.508 32.7713 205.51 31.9181 206.943 30.2116C208.4 28.4823 209.128 26.116 209.128 23.1125C209.128 19.8816 208.274 17.4356 206.568 15.7746C204.861 14.1136 202.427 13.2831 199.264 13.2831C198.468 13.2831 197.808 13.3172 197.284 13.3855V32.6348C198.126 32.7258 199.344 32.7713 200.936 32.7713Z" fill="white"/>
<path d="M9.42969 49.2795V18.9294C9.42969 17.2994 8.24963 16.8594 6.86963 16.3694V16.1194H27.3696C28.0096 16.1194 28.3101 15.6796 28.3101 15.0896H28.5601L30.9199 24.3994H30.6699C27.5199 18.5394 24.3598 17.1096 21.2598 17.1096H13.0298V51.0996H21.2598C24.3598 51.0996 27.5199 49.7196 30.6699 43.8596H30.9199L28.5601 53.1694H28.3101C28.3101 52.5294 28.0096 52.1394 27.3696 52.1394H6.86963V51.8894C8.24963 51.3494 9.42969 50.9495 9.42969 49.2795ZM34.79 35.6895C40.95 33.7795 45.9697 28.8395 45.9697 21.4795C45.9697 12.5095 38.5899 6.34961 25.4399 6.34961H0V45.7795L1.94971 43.8296V7.87939H22.3301C34.2601 7.87939 39.96 14.0995 39.96 21.4795C39.96 26.8495 36.8797 30.7096 32.7197 32.7896C29.5697 34.2096 25.0301 34.3494 21.3301 34.1394V35.2095C26.9701 35.6595 34.7101 36.6294 37.0601 38.6194C40.2701 40.6494 42.0098 44.0794 42.0098 48.3794C42.0098 56.1294 36.4597 60.3096 28.1797 60.3096H8.5498L6.94971 61.9094H28.1797C40.0297 61.9094 48.02 57.0395 48.02 48.5295C48.02 41.3095 42.31 36.5194 34.79 35.6794V35.6895Z" fill="url(#paint0_linear_284_97)"/>
<defs>
<linearGradient id="paint0_linear_284_97" x1="38.56" y1="60.7394" x2="5.37019" y2="3.24951" gradientUnits="userSpaceOnUse">
<stop stop-color="#1BB4BD"/>
<stop offset="0.29" stop-color="#69DDCF"/>
<stop offset="0.36" stop-color="#71E9E0"/>
<stop offset="0.47" stop-color="#7CF9F6"/>
<stop offset="0.54" stop-color="#80FFFF"/>
<stop offset="0.76" stop-color="#1BD7BD"/>
<stop offset="1" stop-color="#1BB4BD"/>
</linearGradient>
</defs>
</svg>
