<svg width="216" height="63" viewBox="0 0 216 63" fill="none" xmlns="http://www.w3.org/2000/svg">
<path d="M61.6149 57.6992V45.1901H65.9882C66.8596 45.1901 67.5783 45.3408 68.1443 45.6421C68.7103 45.9394 69.1317 46.3405 69.4086 46.8454C69.6855 47.3462 69.824 47.9021 69.824 48.5129C69.824 49.0504 69.7283 49.4942 69.5369 49.8444C69.3496 50.1946 69.1012 50.4715 68.7917 50.6751C68.4863 50.8787 68.1545 51.0293 67.7961 51.1271V51.2492C68.1789 51.2737 68.5637 51.408 68.9505 51.6523C69.3374 51.8967 69.6611 52.2469 69.9217 52.7029C70.1823 53.159 70.3126 53.7168 70.3126 54.3765C70.3126 55.0036 70.1701 55.5675 69.885 56.0684C69.6 56.5692 69.1501 56.9663 68.5352 57.2594C67.9203 57.5526 67.1202 57.6992 66.1348 57.6992H61.6149ZM63.1296 56.3555H66.1348C67.1242 56.3555 67.8267 56.1641 68.242 55.7813C68.6614 55.3945 68.8711 54.9262 68.8711 54.3765C68.8711 53.953 68.7632 53.5621 68.5474 53.2038C68.3316 52.8414 68.0242 52.5522 67.6251 52.3364C67.226 52.1165 66.7537 52.0066 66.2081 52.0066H63.1296V56.3555ZM63.1296 50.6873H65.9393C66.3954 50.6873 66.8066 50.5977 67.1731 50.4185C67.5437 50.2394 67.8368 49.9869 68.0527 49.6611C68.2725 49.3354 68.3825 48.9526 68.3825 48.5129C68.3825 47.9631 68.1911 47.4969 67.8083 47.1141C67.4256 46.7273 66.8188 46.5339 65.9882 46.5339H63.1296V50.6873ZM72.8016 57.6992V45.1901H80.351V46.5339H74.3164V50.7606H79.9601V52.1043H74.3164V56.3555H80.4487V57.6992H72.8016ZM83.5943 57.6992H82.0063L86.5995 45.1901H88.1631L92.7563 57.6992H91.1682L87.4301 47.1691H87.3324L83.5943 57.6992ZM84.1807 52.8129H90.5818V54.1566H84.1807V52.8129ZM102.914 45.1901H104.429V53.4725C104.429 54.3276 104.227 55.0911 103.824 55.763C103.425 56.4308 102.861 56.9581 102.132 57.345C101.403 57.7277 100.548 57.9191 99.5666 57.9191C98.5853 57.9191 97.7302 57.7277 97.0013 57.345C96.2724 56.9581 95.7064 56.4308 95.3033 55.763C94.9042 55.0911 94.7047 54.3276 94.7047 53.4725V45.1901H96.2195V53.3504C96.2195 53.9612 96.3539 54.5048 96.6226 54.9812C96.8914 55.4535 97.2741 55.8261 97.7709 56.0989C98.2718 56.3677 98.8703 56.5021 99.5666 56.5021C100.263 56.5021 100.862 56.3677 101.362 56.0989C101.863 55.8261 102.246 55.4535 102.511 54.9812C102.779 54.5048 102.914 53.9612 102.914 53.3504V45.1901ZM106.769 46.5339V45.1901H116.151V46.5339H112.218V57.6992H110.703V46.5339H106.769ZM117.414 45.1901H119.149L122.618 51.0293H122.765L126.234 45.1901H127.969L123.449 52.5441V57.6992H121.934V52.5441L117.414 45.1901Z" fill="#012D22"/>
<path d="M75.7631 28.3433C75.7631 30.1181 75.8428 32.2569 76.0021 34.7598C70.6323 34.6915 65.2739 34.6915 59.9268 34.7598V34.4867C61.1555 34.2137 61.9405 33.9293 62.2818 33.6335C62.6458 33.3149 62.8279 32.7688 62.8279 31.9952V15.5787C62.8279 14.8051 62.6458 14.2704 62.2818 13.9746C61.9405 13.656 61.1555 13.3603 59.9268 13.0872V12.8142C65.2511 12.8824 70.5754 12.8824 75.8997 12.8142C75.7404 14.9985 75.6608 16.887 75.6608 18.4798H75.3877C74.7961 16.7277 73.9884 15.556 72.9645 14.9644C71.9633 14.35 70.2341 14.0429 67.7767 14.0429H66.2409V22.5412H68.2887C69.6311 22.5412 70.6095 22.3251 71.2239 21.8928C71.8382 21.4377 72.4184 20.5958 72.9645 19.3671H73.2375C73.0555 21.87 73.0555 24.3842 73.2375 26.9099H72.9645C72.4412 25.6584 71.8609 24.8166 71.2239 24.3842C70.6095 23.9519 69.6311 23.7358 68.2887 23.7358H66.2409V33.5311H67.8791C70.2682 33.5311 71.9747 33.1898 72.9986 32.5072C74.0225 31.8018 74.8644 30.4139 75.5242 28.3433H75.7631ZM92.8143 35.0328L84.077 17.1828H83.8381L83.292 30.9031C83.2465 31.9725 83.4968 32.7688 84.0429 33.2922C84.5889 33.7927 85.5673 34.1909 86.978 34.4867V34.7598C84.1111 34.6915 81.2442 34.6915 78.3773 34.7598V34.4867C79.5832 34.1909 80.4251 33.7927 80.9029 33.2922C81.4035 32.7688 81.6879 31.9725 81.7562 30.9031L82.507 16.9098C82.5753 15.7494 82.3591 14.8961 81.8585 14.35C81.3807 13.8039 80.482 13.383 79.1623 13.0872V12.8142C81.3694 12.8824 83.5992 12.8824 85.8518 12.8142L93.8723 29.1966H94.1112L101.005 12.8142C103.099 12.8824 105.192 12.8824 107.285 12.8142V13.0872C106.216 13.3147 105.465 13.5992 105.033 13.9405C104.601 14.259 104.396 14.8051 104.418 15.5787C104.692 21.9951 104.987 27.4787 105.306 32.0294C105.351 32.7802 105.568 33.3149 105.954 33.6335C106.364 33.952 107.126 34.2364 108.241 34.4867V34.7598C105.169 34.6915 102.086 34.6915 98.9918 34.7598V34.4867C100.198 34.2364 100.983 33.952 101.347 33.6335C101.734 33.2922 101.916 32.7461 101.893 31.9952C101.529 26.0566 101.279 20.9599 101.142 16.705H100.903L93.1215 35.0328H92.8143ZM126.058 28.3433C126.058 30.1181 126.138 32.2569 126.297 34.7598C120.927 34.6915 115.569 34.6915 110.222 34.7598V34.4867C111.451 34.2137 112.236 33.9293 112.577 33.6335C112.941 33.3149 113.123 32.7688 113.123 31.9952V15.5787C113.123 14.8051 112.941 14.2704 112.577 13.9746C112.236 13.656 111.451 13.3603 110.222 13.0872V12.8142C115.546 12.8824 120.87 12.8824 126.195 12.8142C126.035 14.9985 125.956 16.887 125.956 18.4798H125.683C125.091 16.7277 124.283 15.556 123.26 14.9644C122.258 14.35 120.529 14.0429 118.072 14.0429H116.536V22.5412H118.584C119.926 22.5412 120.905 22.3251 121.519 21.8928C122.133 21.4377 122.713 20.5958 123.26 19.3671H123.533C123.351 21.87 123.351 24.3842 123.533 26.9099H123.26C122.736 25.6584 122.156 24.8166 121.519 24.3842C120.905 23.9519 119.926 23.7358 118.584 23.7358H116.536V33.5311H118.174C120.563 33.5311 122.27 33.1898 123.294 32.5072C124.318 31.8018 125.159 30.4139 125.819 28.3433H126.058ZM144.611 29.9816C146.295 32.7347 147.762 34.2364 149.014 34.4867V34.7598C147.558 35.1011 146.545 35.2717 145.976 35.2717C144.702 35.2717 143.667 34.5891 142.87 33.2239L138.263 25.3399H137.853C137.057 25.3399 136.306 25.2034 135.601 24.9303V31.9952C135.601 32.7688 135.783 33.3149 136.147 33.6335C136.534 33.9293 137.398 34.2137 138.741 34.4867V34.7598C135.578 34.6915 132.427 34.6915 129.287 34.7598V34.4867C130.515 34.2137 131.3 33.9293 131.642 33.6335C132.006 33.3149 132.188 32.7688 132.188 31.9952V15.5787C132.188 14.8051 132.006 14.2704 131.642 13.9746C131.3 13.656 130.515 13.3603 129.287 13.0872V12.8142C131.676 12.8824 134.247 12.8824 137 12.8142C139.799 12.7232 141.972 13.2351 143.519 14.35C145.089 15.4649 145.874 16.9325 145.874 18.7528C145.874 20.0497 145.464 21.2329 144.645 22.3023C143.826 23.3717 142.734 24.1681 141.369 24.6914L144.611 29.9816ZM137.649 24.1112C138.9 24.1112 139.969 23.6448 140.857 22.7119C141.767 21.7562 142.222 20.5276 142.222 19.0258C142.222 17.4103 141.756 16.1817 140.823 15.3398C139.89 14.4752 138.536 14.0429 136.761 14.0429C136.465 14.0429 136.079 14.077 135.601 14.1452V23.7016C136.306 23.9747 136.989 24.1112 137.649 24.1112ZM149.359 34.7598V34.4867C150.269 34.1909 150.986 33.7927 151.509 33.2922C152.033 32.7688 152.533 31.927 153.011 30.7666L160.622 12.4729H160.929L169.803 31.927C170.19 32.7916 170.577 33.3946 170.963 33.7359C171.373 34.0772 171.999 34.3275 172.841 34.4867V34.7598C169.746 34.6915 166.64 34.6915 163.523 34.7598V34.4867C163.591 34.464 163.682 34.4412 163.796 34.4185C164.365 34.2819 164.775 34.1682 165.025 34.0772C165.298 33.9862 165.548 33.8496 165.776 33.6676C166.003 33.4628 166.117 33.2239 166.117 32.9509C166.117 32.6551 166.037 32.3365 165.878 31.9952L164.206 28.1385H155.639L154.479 30.9031C154.251 31.4492 154.137 31.9384 154.137 32.3707C154.137 33.4628 155.07 34.1682 156.936 34.4867V34.7598C154.41 34.6915 151.885 34.6915 149.359 34.7598ZM156.151 26.9099H163.694L159.974 18.2067H159.735L156.151 26.9099ZM174.349 34.7598V34.4867C175.578 34.2137 176.363 33.9293 176.704 33.6335C177.068 33.3149 177.25 32.7688 177.25 31.9952V15.5787C177.25 14.8051 177.068 14.2704 176.704 13.9746C176.363 13.656 175.578 13.3603 174.349 13.0872V12.8142C177.625 12.8824 180.913 12.8824 184.213 12.8142V13.0872C182.665 13.3603 181.687 13.6447 181.277 13.9405C180.868 14.2363 180.663 14.7823 180.663 15.5787V33.5311H182.131C184.178 33.5311 185.692 33.1443 186.67 32.3707C187.671 31.5743 188.502 30.0953 189.161 27.9338H189.434C189.412 29.7313 189.48 32.0066 189.639 34.7598C184.542 34.6915 179.446 34.6915 174.349 34.7598ZM200.174 12.8142C204.497 12.7004 207.865 13.5423 210.277 15.3398C212.689 17.1373 213.894 19.7198 213.894 23.0873C213.894 26.7278 212.78 29.6061 210.55 31.7222C208.343 33.8383 205.339 34.8508 201.539 34.7598C198.308 34.6915 195.089 34.6915 191.881 34.7598V34.4867C193.087 34.2137 193.86 33.9293 194.201 33.6335C194.565 33.3149 194.748 32.7688 194.748 31.9952V15.5787C194.748 14.7823 194.577 14.2363 194.236 13.9405C193.894 13.6447 193.109 13.3603 191.881 13.0872V12.8142C194.429 12.8824 197.194 12.8824 200.174 12.8142ZM201.847 33.5311C204.418 33.5311 206.42 32.6778 207.853 30.9713C209.31 29.2421 210.038 26.8757 210.038 23.8723C210.038 20.6413 209.185 18.1953 207.478 16.5343C205.772 14.8734 203.337 14.0429 200.174 14.0429C199.378 14.0429 198.718 14.077 198.195 14.1452V33.3946C199.037 33.4856 200.254 33.5311 201.847 33.5311Z" fill="#012D22"/>
<path d="M10.3398 50.0393V19.6892C10.3398 18.0592 9.15979 17.6192 7.77979 17.1292V16.8792H28.2798C28.9198 16.8792 29.2202 16.4394 29.2202 15.8494H29.4702L31.8301 25.1592H31.5801C28.4301 19.2992 25.2699 17.8694 22.1699 17.8694H13.9399V51.8594H22.1699C25.2699 51.8594 28.4301 50.4794 31.5801 44.6194H31.8301L29.4702 53.9292H29.2202C29.2202 53.2892 28.9198 52.8992 28.2798 52.8992H7.77979V52.6492C9.15979 52.1092 10.3398 51.7093 10.3398 50.0393ZM35.7002 36.4492C41.8602 34.5392 46.8799 29.5993 46.8799 22.2393C46.8799 13.2693 39.5001 7.10938 26.3501 7.10938H0.910156V46.5393L2.85986 44.5894V8.63916H23.2402C35.1702 8.63916 40.8701 14.8593 40.8701 22.2393C40.8701 27.6093 37.7899 31.4693 33.6299 33.5493C30.4799 34.9693 25.9402 35.1092 22.2402 34.8992V35.9692C27.8802 36.4192 35.6202 37.3892 37.9702 39.3792C41.1802 41.4091 42.9199 44.8392 42.9199 49.1392C42.9199 56.8892 37.3698 61.0693 29.0898 61.0693H9.45996L7.85986 62.6692H29.0898C40.9398 62.6692 48.9302 57.7993 48.9302 49.2893C48.9302 42.0693 43.2202 37.2792 35.7002 36.4392V36.4492Z" fill="url(#paint0_linear_1_2125)"/>
<defs>
<linearGradient id="paint0_linear_1_2125" x1="39.4702" y1="61.4992" x2="6.28035" y2="4.00928" gradientUnits="userSpaceOnUse">
<stop stop-color="#1BB4BD"/>
<stop offset="0.29" stop-color="#69DDCF"/>
<stop offset="0.36" stop-color="#71E9E0"/>
<stop offset="0.47" stop-color="#7CF9F6"/>
<stop offset="0.54" stop-color="#80FFFF"/>
<stop offset="0.76" stop-color="#1BD7BD"/>
<stop offset="1" stop-color="#1BB4BD"/>
</linearGradient>
</defs>
</svg>
