<svg width="158" height="61" viewBox="0 0 158 61" fill="none" xmlns="http://www.w3.org/2000/svg">
<path d="M3.70471 56.9395V44.4304H8.07801C8.94941 44.4304 9.66811 44.581 10.2341 44.8824C10.8001 45.1796 11.2216 45.5807 11.4985 46.0856C11.7754 46.5865 11.9138 47.1423 11.9138 47.7531C11.9138 48.2906 11.8181 48.7344 11.6267 49.0846C11.4394 49.4348 11.191 49.7117 10.8816 49.9153C10.5762 50.1189 10.2443 50.2696 9.88596 50.3673V50.4895C10.2687 50.5139 10.6535 50.6483 11.0404 50.8926C11.4272 51.1369 11.7509 51.4871 12.0115 51.9431C12.2721 52.3992 12.4024 52.9571 12.4024 53.6167C12.4024 54.2438 12.2599 54.8078 11.9749 55.3086C11.6898 55.8095 11.2399 56.2065 10.625 56.4997C10.0102 56.7929 9.21002 56.9395 8.2246 56.9395H3.70471ZM5.21949 55.5957H8.2246C9.21409 55.5957 9.9165 55.4043 10.3318 55.0216C10.7513 54.6347 10.961 54.1664 10.961 53.6167C10.961 53.1932 10.8531 52.8023 10.6372 52.444C10.4214 52.0816 10.114 51.7925 9.71494 51.5767C9.31589 51.3568 8.84354 51.2468 8.2979 51.2468H5.21949V55.5957ZM5.21949 49.9275H8.02915C8.48521 49.9275 8.89648 49.8379 9.26295 49.6588C9.6335 49.4796 9.92668 49.2271 10.1425 48.9014C10.3624 48.5756 10.4723 48.1929 10.4723 47.7531C10.4723 47.2034 10.2809 46.7371 9.89818 46.3544C9.51542 45.9675 8.90869 45.7741 8.07801 45.7741H5.21949V49.9275ZM14.8914 56.9395V44.4304H22.4409V45.7741H16.4062V50.0008H22.05V51.3446H16.4062V55.5957H22.5386V56.9395H14.8914ZM25.6842 56.9395H24.0961L28.6893 44.4304H30.2529L34.8461 56.9395H33.2581L29.52 46.4093H29.4223L25.6842 56.9395ZM26.2706 52.0531H32.6717V53.3968H26.2706V52.0531ZM45.0036 44.4304H46.5184V52.7127C46.5184 53.5679 46.3169 54.3314 45.9137 55.0032C45.5147 55.671 44.9507 56.1984 44.2218 56.5852C43.4929 56.968 42.6378 57.1593 41.6565 57.1593C40.6751 57.1593 39.82 56.968 39.0911 56.5852C38.3623 56.1984 37.7963 55.671 37.3931 55.0032C36.9941 54.3314 36.7946 53.5679 36.7946 52.7127V44.4304H38.3093V52.5906C38.3093 53.2014 38.4437 53.745 38.7125 54.2214C38.9812 54.6938 39.364 55.0663 39.8608 55.3392C40.3616 55.6079 40.9602 55.7423 41.6565 55.7423C42.3528 55.7423 42.9514 55.6079 43.4522 55.3392C43.9531 55.0663 44.3358 54.6938 44.6005 54.2214C44.8693 53.745 45.0036 53.2014 45.0036 52.5906V44.4304ZM48.8593 45.7741V44.4304H58.2411V45.7741H54.3076V56.9395H52.7928V45.7741H48.8593ZM59.5039 44.4304H61.2386L64.7079 50.2696H64.8545L68.3238 44.4304H70.0585L65.5386 51.7843V56.9395H64.0238V51.7843L59.5039 44.4304Z" fill="white"/>
<path d="M17.853 27.5836C17.853 29.3583 17.9326 31.4971 18.0919 34C12.7221 33.9317 7.3637 33.9317 2.01667 34V33.727C3.24535 33.4539 4.03034 33.1695 4.37164 32.8737C4.73569 32.5552 4.91772 32.0091 4.91772 31.2355V14.8189C4.91772 14.0453 4.73569 13.5106 4.37164 13.2148C4.03034 12.8963 3.24535 12.6005 2.01667 12.3274V12.0544C7.34095 12.1227 12.6652 12.1227 17.9895 12.0544C17.8302 14.2387 17.7506 16.1273 17.7506 17.72H17.4776C16.886 15.968 16.0782 14.7962 15.0543 14.2046C14.0532 13.5903 12.3239 13.2831 9.86657 13.2831H8.33072V21.7815H10.3785C11.721 21.7815 12.6994 21.5653 13.3137 21.133C13.928 20.6779 14.5082 19.836 15.0543 18.6074H15.3274C15.1453 21.1102 15.1453 23.6245 15.3274 26.1501H15.0543C14.531 24.8987 13.9508 24.0568 13.3137 23.6245C12.6994 23.1922 11.721 22.976 10.3785 22.976H8.33072V32.7713H9.96896C12.3581 32.7713 14.0646 32.43 15.0885 31.7474C16.1124 31.0421 16.9542 29.6541 17.6141 27.5836H17.853ZM34.9041 34.273L26.1668 16.423H25.9279L25.3819 30.1433C25.3363 31.2127 25.5866 32.0091 26.1327 32.5324C26.6788 33.033 27.6572 33.4312 29.0679 33.727V34C26.201 33.9317 23.3341 33.9317 20.4671 34V33.727C21.6731 33.4312 22.5149 33.033 22.9928 32.5324C23.4933 32.0091 23.7777 31.2127 23.846 30.1433L24.5969 16.15C24.6651 14.9896 24.449 14.1363 23.9484 13.5903C23.4706 13.0442 22.5718 12.6232 21.2521 12.3274V12.0544C23.4592 12.1227 25.689 12.1227 27.9416 12.0544L35.9622 28.4368H36.2011L43.0953 12.0544C45.1886 12.1227 47.2819 12.1227 49.3752 12.0544V12.3274C48.3058 12.555 47.555 12.8394 47.1227 13.1807C46.6904 13.4992 46.4856 14.0453 46.5083 14.8189C46.7814 21.2354 47.0772 26.7189 47.3957 31.2696C47.4412 32.0205 47.6574 32.5552 48.0442 32.8737C48.4537 33.1923 49.216 33.4767 50.3309 33.727V34C47.2592 33.9317 44.1761 33.9317 41.0817 34V33.727C42.2876 33.4767 43.0726 33.1923 43.4366 32.8737C43.8234 32.5324 44.0055 31.9863 43.9827 31.2355C43.6187 25.2968 43.3684 20.2001 43.2318 15.9452H42.9929L35.2113 34.273H34.9041ZM68.1481 27.5836C68.1481 29.3583 68.2277 31.4971 68.387 34C63.0172 33.9317 57.6588 33.9317 52.3118 34V33.727C53.5404 33.4539 54.3254 33.1695 54.6667 32.8737C55.0308 32.5552 55.2128 32.0091 55.2128 31.2355V14.8189C55.2128 14.0453 55.0308 13.5106 54.6667 13.2148C54.3254 12.8963 53.5404 12.6005 52.3118 12.3274V12.0544C57.636 12.1227 62.9603 12.1227 68.2846 12.0544C68.1253 14.2387 68.0457 16.1273 68.0457 17.72H67.7726C67.1811 15.968 66.3733 14.7962 65.3494 14.2046C64.3483 13.5903 62.619 13.2831 60.1617 13.2831H58.6258V21.7815H60.6736C62.0161 21.7815 62.9944 21.5653 63.6088 21.133C64.2231 20.6779 64.8033 19.836 65.3494 18.6074H65.6225C65.4404 21.1102 65.4404 23.6245 65.6225 26.1501H65.3494C64.8261 24.8987 64.2459 24.0568 63.6088 23.6245C62.9944 23.1922 62.0161 22.976 60.6736 22.976H58.6258V32.7713H60.264C62.6531 32.7713 64.3596 32.43 65.3835 31.7474C66.4074 31.0421 67.2493 29.6541 67.9092 27.5836H68.1481ZM86.7009 29.2218C88.3847 31.975 89.8523 33.4767 91.1037 33.727V34C89.6475 34.3413 88.635 34.512 88.0661 34.512C86.7919 34.512 85.7567 33.8293 84.9603 32.4641L80.3528 24.5801H79.9432C79.1468 24.5801 78.396 24.4436 77.6906 24.1706V31.2355C77.6906 32.0091 77.8726 32.5552 78.2367 32.8737C78.6235 33.1695 79.4881 33.4539 80.8306 33.727V34C77.6679 33.9317 74.5165 33.9317 71.3766 34V33.727C72.6052 33.4539 73.3902 33.1695 73.7315 32.8737C74.0956 32.5552 74.2776 32.0091 74.2776 31.2355V14.8189C74.2776 14.0453 74.0956 13.5106 73.7315 13.2148C73.3902 12.8963 72.6052 12.6005 71.3766 12.3274V12.0544C73.7657 12.1227 76.3368 12.1227 79.0899 12.0544C81.8886 11.9634 84.0615 12.4753 85.6088 13.5903C87.1788 14.7052 87.9637 16.1728 87.9637 17.993C87.9637 19.29 87.5542 20.4731 86.7351 21.5425C85.9159 22.612 84.8238 23.4083 83.4586 23.9316L86.7009 29.2218ZM79.7384 23.3514C80.9898 23.3514 82.0593 22.885 82.9466 21.9521C83.8568 20.9965 84.3118 19.7678 84.3118 18.2661C84.3118 16.6506 83.8454 15.4219 82.9125 14.58C81.9796 13.7154 80.6258 13.2831 78.851 13.2831C78.5552 13.2831 78.1684 13.3172 77.6906 13.3855V22.9419C78.396 23.2149 79.0786 23.3514 79.7384 23.3514ZM91.449 34V33.727C92.3591 33.4312 93.0759 33.033 93.5992 32.5324C94.1225 32.0091 94.6231 31.1672 95.1009 30.0068L102.712 11.7131H103.019L111.893 31.1672C112.28 32.0318 112.666 32.6348 113.053 32.9761C113.463 33.3174 114.089 33.5677 114.93 33.727V34C111.836 33.9317 108.73 33.9317 105.613 34V33.727C105.681 33.7042 105.772 33.6815 105.886 33.6587C106.455 33.5222 106.864 33.4084 107.115 33.3174C107.388 33.2264 107.638 33.0899 107.866 32.9078C108.093 32.7031 108.207 32.4641 108.207 32.1911C108.207 31.8953 108.127 31.5768 107.968 31.2355L106.296 27.3788H97.7289L96.5685 30.1433C96.341 30.6894 96.2272 31.1786 96.2272 31.6109C96.2272 32.7031 97.1601 33.4084 99.0259 33.727V34C96.5002 33.9317 93.9746 33.9317 91.449 34ZM98.2409 26.1501H105.784L102.063 17.4469H101.825L98.2409 26.1501ZM116.439 34V33.727C117.668 33.4539 118.453 33.1695 118.794 32.8737C119.158 32.5552 119.34 32.0091 119.34 31.2355V14.8189C119.34 14.0453 119.158 13.5106 118.794 13.2148C118.453 12.8963 117.668 12.6005 116.439 12.3274V12.0544C119.715 12.1227 123.003 12.1227 126.302 12.0544V12.3274C124.755 12.6005 123.777 12.8849 123.367 13.1807C122.958 13.4765 122.753 14.0226 122.753 14.8189V32.7713H124.22C126.268 32.7713 127.781 32.3845 128.76 31.6109C129.761 30.8145 130.591 29.3356 131.251 27.174H131.524C131.502 28.9715 131.57 31.2468 131.729 34C126.632 33.9317 121.536 33.9317 116.439 34ZM142.264 12.0544C146.587 11.9406 149.955 12.7825 152.367 14.58C154.778 16.3775 155.984 18.96 155.984 22.3275C155.984 25.9681 154.869 28.8464 152.64 30.9624C150.432 33.0785 147.429 34.091 143.629 34C140.398 33.9317 137.179 33.9317 133.97 34V33.727C135.176 33.4539 135.95 33.1695 136.291 32.8737C136.655 32.5552 136.837 32.0091 136.837 31.2355V14.8189C136.837 14.0226 136.667 13.4765 136.325 13.1807C135.984 12.8849 135.199 12.6005 133.97 12.3274V12.0544C136.519 12.1227 139.283 12.1227 142.264 12.0544ZM143.936 32.7713C146.508 32.7713 148.51 31.9181 149.943 30.2116C151.4 28.4823 152.128 26.116 152.128 23.1125C152.128 19.8816 151.274 17.4356 149.568 15.7746C147.861 14.1136 145.427 13.2831 142.264 13.2831C141.468 13.2831 140.808 13.3172 140.284 13.3855V32.6348C141.126 32.7258 142.344 32.7713 143.936 32.7713Z" fill="white"/>
</svg>
