<svg width="49" height="56" viewBox="0 0 49 56" fill="none" xmlns="http://www.w3.org/2000/svg">
<path d="M10.3398 43.0393V12.6892C10.3398 11.0592 9.15979 10.6192 7.77979 10.1292V9.87915H28.2798C28.9198 9.87915 29.2202 9.43937 29.2202 8.84937H29.4702L31.8301 18.1592H31.5801C28.4301 12.2992 25.2699 10.8694 22.1699 10.8694H13.9399V44.8594H22.1699C25.2699 44.8594 28.4301 43.4794 31.5801 37.6194H31.8301L29.4702 46.9292H29.2202C29.2202 46.2892 28.9198 45.8992 28.2798 45.8992H7.77979V45.6492C9.15979 45.1092 10.3398 44.7093 10.3398 43.0393ZM35.7002 29.4492C41.8602 27.5392 46.8799 22.5993 46.8799 15.2393C46.8799 6.26926 39.5001 0.109375 26.3501 0.109375H0.910156V39.5393L2.85986 37.5894V1.63916H23.2402C35.1702 1.63916 40.8701 7.85926 40.8701 15.2393C40.8701 20.6093 37.7899 24.4693 33.6299 26.5493C30.4799 27.9693 25.9402 28.1092 22.2402 27.8992V28.9692C27.8802 29.4192 35.6202 30.3892 37.9702 32.3792C41.1802 34.4091 42.9199 37.8392 42.9199 42.1392C42.9199 49.8892 37.3698 54.0693 29.0898 54.0693H9.45996L7.85986 55.6692H29.0898C40.9398 55.6692 48.9302 50.7993 48.9302 42.2893C48.9302 35.0693 43.2202 30.2792 35.7002 29.4392V29.4492Z" fill="url(#paint0_linear_284_96)"/>
<defs>
<linearGradient id="paint0_linear_284_96" x1="39.4702" y1="54.4992" x2="6.28035" y2="-2.99072" gradientUnits="userSpaceOnUse">
<stop stop-color="#1BB4BD"/>
<stop offset="0.29" stop-color="#69DDCF"/>
<stop offset="0.36" stop-color="#71E9E0"/>
<stop offset="0.47" stop-color="#7CF9F6"/>
<stop offset="0.54" stop-color="#80FFFF"/>
<stop offset="0.76" stop-color="#1BD7BD"/>
<stop offset="1" stop-color="#1BB4BD"/>
</linearGradient>
</defs>
</svg>
