<svg width="158" height="62" viewBox="0 0 158 62" fill="none" xmlns="http://www.w3.org/2000/svg">
<path d="M3.61487 57.6992V45.1901H7.98817C8.85957 45.1901 9.57827 45.3408 10.1443 45.6421C10.7103 45.9394 11.1317 46.3405 11.4086 46.8454C11.6855 47.3462 11.824 47.9021 11.824 48.5129C11.824 49.0504 11.7283 49.4942 11.5369 49.8444C11.3496 50.1946 11.1012 50.4715 10.7917 50.6751C10.4863 50.8787 10.1545 51.0293 9.79612 51.1271V51.2492C10.1789 51.2737 10.5637 51.408 10.9505 51.6523C11.3374 51.8967 11.6611 52.2469 11.9217 52.7029C12.1823 53.159 12.3126 53.7168 12.3126 54.3765C12.3126 55.0036 12.1701 55.5675 11.885 56.0684C11.6 56.5692 11.1501 56.9663 10.5352 57.2594C9.92032 57.5526 9.12017 57.6992 8.13476 57.6992H3.61487ZM5.12964 56.3555H8.13476C9.12425 56.3555 9.82666 56.1641 10.242 55.7813C10.6614 55.3945 10.8711 54.9262 10.8711 54.3765C10.8711 53.953 10.7632 53.5621 10.5474 53.2038C10.3316 52.8414 10.0242 52.5522 9.6251 52.3364C9.22605 52.1165 8.7537 52.0066 8.20805 52.0066H5.12964V56.3555ZM5.12964 50.6873H7.9393C8.39536 50.6873 8.80663 50.5977 9.17311 50.4185C9.54366 50.2394 9.83684 49.9869 10.0527 49.6611C10.2725 49.3354 10.3825 48.9526 10.3825 48.5129C10.3825 47.9631 10.1911 47.4969 9.80834 47.1141C9.42557 46.7273 8.81885 46.5339 7.98817 46.5339H5.12964V50.6873ZM14.8016 57.6992V45.1901H22.351V46.5339H16.3164V50.7606H21.9601V52.1043H16.3164V56.3555H22.4487V57.6992H14.8016ZM25.5943 57.6992H24.0063L28.5995 45.1901H30.1631L34.7563 57.6992H33.1682L29.4301 47.1691H29.3324L25.5943 57.6992ZM26.1807 52.8129H32.5818V54.1566H26.1807V52.8129ZM44.9138 45.1901H46.4286V53.4725C46.4286 54.3276 46.227 55.0911 45.8239 55.763C45.4248 56.4308 44.8609 56.9581 44.132 57.345C43.4031 57.7277 42.548 57.9191 41.5666 57.9191C40.5853 57.9191 39.7302 57.7277 39.0013 57.345C38.2724 56.9581 37.7064 56.4308 37.3033 55.763C36.9042 55.0911 36.7047 54.3276 36.7047 53.4725V45.1901H38.2195V53.3504C38.2195 53.9612 38.3539 54.5048 38.6226 54.9812C38.8914 55.4535 39.2741 55.8261 39.7709 56.0989C40.2718 56.3677 40.8703 56.5021 41.5666 56.5021C42.263 56.5021 42.8615 56.3677 43.3624 56.0989C43.8632 55.8261 44.246 55.4535 44.5107 54.9812C44.7794 54.5048 44.9138 53.9612 44.9138 53.3504V45.1901ZM48.7695 46.5339V45.1901H58.1513V46.5339H54.2177V57.6992H52.703V46.5339H48.7695ZM59.4141 45.1901H61.1488L64.6181 51.0293H64.7647L68.234 45.1901H69.9686L65.4488 52.5441V57.6992H63.934V52.5441L59.4141 45.1901Z" fill="#012D22"/>
<path d="M17.7631 28.3433C17.7631 30.1181 17.8428 32.2569 18.0021 34.7598C12.6323 34.6915 7.27386 34.6915 1.92682 34.7598V34.4867C3.1555 34.2137 3.94049 33.9293 4.28179 33.6335C4.64585 33.3149 4.82787 32.7688 4.82787 31.9952V15.5787C4.82787 14.8051 4.64585 14.2704 4.28179 13.9746C3.94049 13.656 3.1555 13.3603 1.92682 13.0872V12.8142C7.2511 12.8824 12.5754 12.8824 17.8997 12.8142C17.7404 14.9985 17.6608 16.887 17.6608 18.4798H17.3877C16.7961 16.7277 15.9884 15.556 14.9645 14.9644C13.9633 14.35 12.2341 14.0429 9.77672 14.0429H8.24087V22.5412H10.2887C11.6311 22.5412 12.6095 22.3251 13.2239 21.8928C13.8382 21.4377 14.4184 20.5958 14.9645 19.3671H15.2375C15.0555 21.87 15.0555 24.3842 15.2375 26.9099H14.9645C14.4412 25.6584 13.8609 24.8166 13.2239 24.3842C12.6095 23.9519 11.6311 23.7358 10.2887 23.7358H8.24087V33.5311H9.87911C12.2682 33.5311 13.9747 33.1898 14.9986 32.5072C16.0225 31.8018 16.8644 30.4139 17.5242 28.3433H17.7631ZM34.8143 35.0328L26.077 17.1828H25.8381L25.292 30.9031C25.2465 31.9725 25.4968 32.7688 26.0429 33.2922C26.5889 33.7927 27.5673 34.1909 28.978 34.4867V34.7598C26.1111 34.6915 23.2442 34.6915 20.3773 34.7598V34.4867C21.5832 34.1909 22.4251 33.7927 22.9029 33.2922C23.4035 32.7688 23.6879 31.9725 23.7562 30.9031L24.507 16.9098C24.5753 15.7494 24.3591 14.8961 23.8585 14.35C23.3807 13.8039 22.482 13.383 21.1623 13.0872V12.8142C23.3694 12.8824 25.5992 12.8824 27.8518 12.8142L35.8723 29.1966H36.1112L43.0055 12.8142C45.0988 12.8824 47.1921 12.8824 49.2854 12.8142V13.0872C48.216 13.3147 47.4651 13.5992 47.0328 13.9405C46.6005 14.259 46.3957 14.8051 46.4185 15.5787C46.6915 21.9951 46.9873 27.4787 47.3059 32.0294C47.3514 32.7802 47.5675 33.3149 47.9543 33.6335C48.3639 33.952 49.1261 34.2364 50.241 34.4867V34.7598C47.1693 34.6915 44.0863 34.6915 40.9918 34.7598V34.4867C42.1977 34.2364 42.9827 33.952 43.3468 33.6335C43.7336 33.2922 43.9156 32.7461 43.8929 31.9952C43.5288 26.0566 43.2785 20.9599 43.142 16.705H42.9031L35.1215 35.0328H34.8143ZM68.0582 28.3433C68.0582 30.1181 68.1379 32.2569 68.2971 34.7598C62.9274 34.6915 57.5689 34.6915 52.2219 34.7598V34.4867C53.4506 34.2137 54.2356 33.9293 54.5769 33.6335C54.9409 33.3149 55.123 32.7688 55.123 31.9952V15.5787C55.123 14.8051 54.9409 14.2704 54.5769 13.9746C54.2356 13.656 53.4506 13.3603 52.2219 13.0872V12.8142C57.5462 12.8824 62.8705 12.8824 68.1948 12.8142C68.0355 14.9985 67.9558 16.887 67.9558 18.4798H67.6828C67.0912 16.7277 66.2835 15.556 65.2596 14.9644C64.2584 14.35 62.5292 14.0429 60.0718 14.0429H58.536V22.5412H60.5838C61.9262 22.5412 62.9046 22.3251 63.5189 21.8928C64.1333 21.4377 64.7135 20.5958 65.2596 19.3671H65.5326C65.3506 21.87 65.3506 24.3842 65.5326 26.9099H65.2596C64.7362 25.6584 64.156 24.8166 63.5189 24.3842C62.9046 23.9519 61.9262 23.7358 60.5838 23.7358H58.536V33.5311H60.1742C62.5633 33.5311 64.2698 33.1898 65.2937 32.5072C66.3176 31.8018 67.1595 30.4139 67.8193 28.3433H68.0582ZM86.6111 29.9816C88.2948 32.7347 89.7624 34.2364 91.0139 34.4867V34.7598C89.5576 35.1011 88.5451 35.2717 87.9763 35.2717C86.7021 35.2717 85.6668 34.5891 84.8705 33.2239L80.2629 25.3399H79.8533C79.057 25.3399 78.3061 25.2034 77.6008 24.9303V31.9952C77.6008 32.7688 77.7828 33.3149 78.1468 33.6335C78.5337 33.9293 79.3983 34.2137 80.7407 34.4867V34.7598C77.578 34.6915 74.4267 34.6915 71.2867 34.7598V34.4867C72.5154 34.2137 73.3004 33.9293 73.6417 33.6335C74.0057 33.3149 74.1878 32.7688 74.1878 31.9952V15.5787C74.1878 14.8051 74.0057 14.2704 73.6417 13.9746C73.3004 13.656 72.5154 13.3603 71.2867 13.0872V12.8142C73.6758 12.8824 76.2469 12.8824 79.0001 12.8142C81.7988 12.7232 83.9717 13.2351 85.5189 14.35C87.0889 15.4649 87.8739 16.9325 87.8739 18.7528C87.8739 20.0497 87.4643 21.2329 86.6452 22.3023C85.8261 23.3717 84.7339 24.1681 83.3687 24.6914L86.6111 29.9816ZM79.6486 24.1112C80.9 24.1112 81.9694 23.6448 82.8568 22.7119C83.7669 21.7562 84.222 20.5276 84.222 19.0258C84.222 17.4103 83.7555 16.1817 82.8227 15.3398C81.8898 14.4752 80.5359 14.0429 78.7612 14.0429C78.4654 14.0429 78.0786 14.077 77.6008 14.1452V23.7016C78.3061 23.9747 78.9887 24.1112 79.6486 24.1112ZM91.3592 34.7598V34.4867C92.2693 34.1909 92.986 33.7927 93.5094 33.2922C94.0327 32.7688 94.5333 31.927 95.0111 30.7666L102.622 12.4729H102.929L111.803 31.927C112.19 32.7916 112.577 33.3946 112.963 33.7359C113.373 34.0772 113.999 34.3275 114.841 34.4867V34.7598C111.746 34.6915 108.64 34.6915 105.523 34.7598V34.4867C105.591 34.464 105.682 34.4412 105.796 34.4185C106.365 34.2819 106.775 34.1682 107.025 34.0772C107.298 33.9862 107.548 33.8496 107.776 33.6676C108.003 33.4628 108.117 33.2239 108.117 32.9509C108.117 32.6551 108.037 32.3365 107.878 31.9952L106.206 28.1385H97.6391L96.4787 30.9031C96.2511 31.4492 96.1374 31.9384 96.1374 32.3707C96.1374 33.4628 97.0702 34.1682 98.936 34.4867V34.7598C96.4104 34.6915 93.8848 34.6915 91.3592 34.7598ZM98.151 26.9099H105.694L101.974 18.2067H101.735L98.151 26.9099ZM116.349 34.7598V34.4867C117.578 34.2137 118.363 33.9293 118.704 33.6335C119.068 33.3149 119.25 32.7688 119.25 31.9952V15.5787C119.25 14.8051 119.068 14.2704 118.704 13.9746C118.363 13.656 117.578 13.3603 116.349 13.0872V12.8142C119.625 12.8824 122.913 12.8824 126.213 12.8142V13.0872C124.665 13.3603 123.687 13.6447 123.277 13.9405C122.868 14.2363 122.663 14.7823 122.663 15.5787V33.5311H124.131C126.178 33.5311 127.692 33.1443 128.67 32.3707C129.671 31.5743 130.502 30.0953 131.161 27.9338H131.434C131.412 29.7313 131.48 32.0066 131.639 34.7598C126.542 34.6915 121.446 34.6915 116.349 34.7598ZM142.174 12.8142C146.497 12.7004 149.865 13.5423 152.277 15.3398C154.689 17.1373 155.894 19.7198 155.894 23.0873C155.894 26.7278 154.78 29.6061 152.55 31.7222C150.343 33.8383 147.339 34.8508 143.539 34.7598C140.308 34.6915 137.089 34.6915 133.881 34.7598V34.4867C135.087 34.2137 135.86 33.9293 136.201 33.6335C136.565 33.3149 136.748 32.7688 136.748 31.9952V15.5787C136.748 14.7823 136.577 14.2363 136.236 13.9405C135.894 13.6447 135.109 13.3603 133.881 13.0872V12.8142C136.429 12.8824 139.194 12.8824 142.174 12.8142ZM143.847 33.5311C146.418 33.5311 148.42 32.6778 149.853 30.9713C151.31 29.2421 152.038 26.8757 152.038 23.8723C152.038 20.6413 151.185 18.1953 149.478 16.5343C147.772 14.8734 145.337 14.0429 142.174 14.0429C141.378 14.0429 140.718 14.077 140.195 14.1452V33.3946C141.037 33.4856 142.254 33.5311 143.847 33.5311Z" fill="#012D22"/>
</svg>
